<?xml version="1.0" encoding="UTF-8" standalone="no"?>
<svg
   xmlns:dc="http://purl.org/dc/elements/1.1/"
   xmlns:cc="http://creativecommons.org/ns#"
   xmlns:rdf="http://www.w3.org/1999/02/22-rdf-syntax-ns#"
   xmlns:svg="http://www.w3.org/2000/svg"
   xmlns="http://www.w3.org/2000/svg"
   xmlns:sodipodi="http://sodipodi.sourceforge.net/DTD/sodipodi-0.dtd"
   xmlns:inkscape="http://www.inkscape.org/namespaces/inkscape"
   version="1.1"
   x="0px"
   y="0px"
   viewBox="0 0 100 125"
   enable-background="new 0 0 100 100"
   xml:space="preserve"
   id="svg8"
   sodipodi:docname="noun_1143802_cc.svg"
   inkscape:version="0.92.2 (5c3e80d, 2017-08-06)"><metadata
     id="metadata14"><rdf:RDF><cc:Work
         rdf:about=""><dc:format>image/svg+xml</dc:format><dc:type
           rdf:resource="http://purl.org/dc/dcmitype/StillImage" /><dc:title></dc:title></cc:Work></rdf:RDF></metadata><defs
     id="defs12" /><sodipodi:namedview
     pagecolor="#ffffff"
     bordercolor="#666666"
     borderopacity="1"
     objecttolerance="10"
     gridtolerance="10"
     guidetolerance="10"
     inkscape:pageopacity="0"
     inkscape:pageshadow="2"
     inkscape:window-width="1154"
     inkscape:window-height="684"
     id="namedview10"
     showgrid="false"
     inkscape:zoom="2.9141045"
     inkscape:cx="-26.111086"
     inkscape:cy="80.392358"
     inkscape:window-x="0"
     inkscape:window-y="23"
     inkscape:window-maximized="0"
     inkscape:current-layer="svg8" /><path
     d="m 400.8791,-99.342734 c 0,-53.668326 -19.17464,-99.686316 -57.53618,-138.041736 -38.35544,-38.35544 -84.51374,-57.54231 -138.47491,-57.54231 -53.66833,0 -99.6863,19.18687 -138.04174,57.54231 -38.355434,38.35542 -57.5423004,84.37341 -57.5423004,138.041736 0,53.680531 19.1868664,99.68631095 57.5423004,138.041741 38.35544,38.367638 84.37341,57.54231 138.04174,57.54231 53.96727,0 100.11947,-19.174672 138.47491,-57.54231 38.36154,-38.35543005 57.53618,-84.36121 57.53618,-138.041741 z"
     id="path3720"
     style="fill:#ffffff;stroke:#000000;stroke-width:8.40486717;stroke-miterlimit:4;stroke-dasharray:none"
     inkscape:connector-curvature="0"
     inkscape:export-filename="/home/bizarro/Documents/Projects/AlpheusClient/src/img/alpheus-logo.png"
     inkscape:export-xdpi="96"
     inkscape:export-ydpi="96" /><path
     d="m 270.84405,-254.3983 c 19.84717,8.48946 37.43357,20.56232 52.76687,36.27242 15.33329,15.69472 27.33696,33.55026 35.98792,53.5743 8.66629,20.92373 12.98792,42.93941 12.98792,66.023955 0,23.099929 -4.3293,45.100226 -12.98792,66.039339 -8.65096,20.024038 -20.65463,37.8795756 -35.98792,53.574297 -15.3333,15.694725 -32.9197,27.875246 -52.76687,36.526184 -12.80339,5.244392 -25.97588,8.935458 -39.5098,11.096271 21.83112,-12.634217 32.55829,-25.514501 32.20456,-38.686997 -0.36141,-9.566012 -3.42193,-18.501471 -9.2046,-26.790992 -3.96789,-5.9441543 -10.27346,-12.4496628 -18.93978,-19.478067 -10.81944,-8.666317 -17.31726,-14.164471 -19.47807,-16.502146 -5.40587,-5.959534 -8.3049,-11.819105 -8.65863,-17.586396 0,-5.244392 5.05215,-9.750567 15.14876,-13.533913 6.86692,-2.722159 17.9555,-5.605805 33.28881,-8.666317 17.32494,-3.606479 28.22897,-6.036429 32.75052,-7.297546 10.27347,-3.075888 15.42558,-6.32095 15.42558,-9.750567 0,-3.783346 -5.32897,-7.497479 -15.97155,-11.096275 -6.67468,-2.16081 -17.67867,-5.13673 -33.01198,-8.92008 -18.76292,-3.62185 -30.2206,-5.87494 -34.37306,-6.77464 -10.0966,-2.88365 -15.15644,-5.49815 -15.15644,-7.84352 0,-3.79872 7.85121,-8.39717 23.55362,-13.80305 9.01235,-3.07589 14.52589,-5.15211 16.50215,-6.23637 1.11501,-0.46907 2.09929,-0.91507 2.97592,-1.35339 -11.01937,1.71481 -27.74452,3.82949 -50.19082,6.36709 -22.99996,2.61451 -34.76524,7.43597 -35.3189,14.47976 -0.36141,4.32931 2.88365,8.19724 9.74288,11.62685 4.50618,2.34537 11.91138,4.7907 22.19254,7.31293 5.41356,1.62253 12.89566,3.33734 22.46168,5.13674 6.85923,2.160805 10.28885,4.144755 10.28885,5.95953 0.36142,2.160812 -5.6904,4.329313 -18.13237,6.490125 -16.95583,2.706783 -30.12833,5.136733 -39.50979,7.297546 -38.78696,7.22065 -58.18044,16.955838 -58.18044,29.228638 0,6.144088 1.16884,11.549963 3.52189,16.233005 1.26111,3.075887 3.42962,6.413229 6.49782,10.019708 3.78334,3.967896 6.12871,6.866921 7.0284,8.666317 2.16851,3.421925 2.89134,7.2975461 2.16851,11.6268587 C 130.78343,3.1381978 120.50228,9.443773 100.10145,13.788465 94.872434,15.049581 89.289696,16.133831 83.330162,17.033527 69.79625,2.238502 59.245949,-14.263644 51.663883,-32.480595 43.012945,-53.419712 38.683632,-75.420008 38.683632,-98.519933 c 0,-23.084547 4.329313,-45.100227 12.980251,-66.023957 8.489454,-20.02404 20.477733,-37.87958 35.995592,-53.5743 15.340995,-15.7101 33.019665,-27.78297 53.036015,-36.27242 20.57001,-8.65094 42.13199,-12.98794 64.67057,-12.98794 22.72313,-0.0154 44.54656,4.32931 65.47799,12.98025 z"
     id="path2"
     inkscape:connector-curvature="0"
     style="stroke-width:7.68972254"
     inkscape:export-filename="/home/bizarro/Documents/Projects/AlpheusClient/src/img/alpheus-logo.png"
     inkscape:export-xdpi="96"
     inkscape:export-ydpi="96" /><text
     x="0"
     y="115"
     fill="#000000"
     font-size="5px"
     font-weight="bold"
     font-family="'Helvetica Neue', Helvetica, Arial-Unicode, Arial, Sans-serif"
     id="text4">Created by Saeful Muslim</text>
<text
     x="0"
     y="120"
     fill="#000000"
     font-size="5px"
     font-weight="bold"
     font-family="'Helvetica Neue', Helvetica, Arial-Unicode, Arial, Sans-serif"
     id="text6">from the Noun Project</text>
</svg>